. 
 
http://www.torrenting.com          :     Once & For all ;)


               www . Torrenting . Com 

(((((((((((((= Enjoy No RAR releases =))))))))))))))))))))


...................................NFO:....................................

.[img]http://img803.imageshack.us/img803/1526/whistleblower.jpg[/img]

The.Whistleblower.2010.BRRip.XviD.AC3-EMBER 
http://www.imdb.com/title/tt0896872/

Plot
A drama based on the experiences of Kathryn Bolkovac, a Nebraska cop who served as a peacekeeper 
in post-war Bosnia and outed the U.N. for covering up a sex scandal. 

Source                           : 1080p.BluRay.x264.DTS-HDC Thanks

General
Format                           : AVI
Format/Info                      : Audio Video Interleave
File size                        : 1.76 GiB
Duration                         : 1h 51mn
Overall bit rate                 : 2 248 Kbps
Writing application              : VirtualDubMod 1.5.10.2 (build 2540/release)
Writing library                  : VirtualDubMod build 2540/release

Video
ID                               : 0
Format                           : MPEG-4 Visual
Format profile                   : Advanced Simple@L5
Format settings, BVOP            : 2
Format settings, QPel            : No
Format settings, GMC             : No warppoints
Format settings, Matrix          : Default (H.263)
Muxing mode                      : Packed bitstream
Codec ID                         : XVID
Codec ID/Hint                    : XviD
Duration                         : 1h 51mn
Bit rate                         : 1 855 Kbps
Width                            : 720 pixels
Height                           : 400 pixels
Display aspect ratio             : 16:9
Frame rate                       : 23.976 fps
Color space                      : YUV
Chroma subsampling               : 4:2:0
Bit depth                        : 8 bits
Scan type                        : Progressive
Compression mode                 : Lossy
Bits/(Pixel*Frame)               : 0.269
Stream size                      : 1.45 GiB (83%)
Writing library                  : XviD 64

Audio
ID                               : 1
Format                           : AC-3
Format/Info                      : Audio Coding 3
Mode extension                   : CM (complete main)
Codec ID                         : 2000
Duration                         : 1h 51mn
Bit rate mode                    : Constant
Bit rate                         : 384 Kbps
Channel(s)                       : 6 channels
Channel positions                : Front: L C R, Side: L R, LFE
Sampling rate                    : 48.0 KHz
Bit depth                        : 16 bits
Compression mode                 : Lossy
Stream size                      : 307 MiB (17%)
Alignment                        : Split accross interleaves
Interleave, duration             : 42 ms (1.00 video frame)
Interleave, preload duration     : 500 ms

Screens
[img]http://img820.imageshack.us/img820/9141/30337821.png[/img]
[img]http://img835.imageshack.us/img835/3192/24803704.png[/img]
[img]http://img97.imageshack.us/img97/3793/48900958.png[/img]
[img]http://img37.imageshack.us/img37/4986/99395548.png[/img]

Greetz to 

SHiRK, SHK, LKRG, UnKnOwN, IMAGiNE, SiC, BHRG, TaRiQ786, FLAWL3SS, Rx, Hive-CM8

SAMURAi, ViSUALiSE, RemixHD, iNSANE, DTRG

And to all other groups past and present

Got something to offer?

then you should know where to find us